<?xml version="1.0" encoding="utf-8"?>
<!-- Generator: Adobe Illustrator 18.1.1, SVG Export Plug-In . SVG Version: 6.00 Build 0)  -->
<svg version="1.1" id="Layer_1" xmlns="http://www.w3.org/2000/svg" xmlns:xlink="http://www.w3.org/1999/xlink" x="0px" y="0px"
	 viewBox="0 0 32 32" enable-background="new 0 0 32 32" xml:space="preserve">
<g>
	<path d="M30.1,0.7c-4.6,0-9.3,0-13.9,0c0,0,0,0,0,0c-2.8,0-5.6,0-8.4,0c-1.9,0-3.9,0-5.8,0C1.3,0.7,1,1,0.7,1.4
		C0.6,1.7,0.5,2,0.5,2.3c0,7.6,0,15.2,0,22.8c0,1.5,0,3,0,4.5C0.5,30.5,1,31,1.8,31c0.1,0,0.3,0,0.4,0c9.1,0,18.3,0,27.4,0
		c0.2,0,0.3,0,0.5,0c0.9-0.1,1.3-0.4,1.4-1.3c0-0.2,0-0.5,0-0.7c0-4.4,0-8.7,0-13.1c0-4.6,0-9.1,0-13.7C31.6,1.1,31.3,0.7,30.1,0.7z
		 M30.1,29.4c-0.4,0-0.7,0.1-1,0.1c-8.8,0-17.5,0-26.3,0c-0.3,0-0.5,0-0.8,0c0-9.1,0-18.1,0-27.2c9.3,0,18.7,0,28,0
		c0,0.4,0.1,0.7,0.1,1.1c0,6.5,0,13.1,0,19.6c0,1.9,0,3.7,0,5.6C30.1,28.8,30.1,29,30.1,29.4z"/>
	<path d="M74.9,16.3c0.5,0,1.1,0.1,1.6-0.1c0-5.2,0-10.3,0-15.4c-1.2,0-2.3,0-3.4,0c0,3,0,6,0,9.1c-1.8-3.1-3.5-6.1-5.3-9.1
		c-0.6,0-1.2,0-1.8,0c-0.6,0-1.2-0.1-1.7,0.1c0,5.2,0,10.3,0,15.5c0.6,0,1.2,0,1.7,0c0.6,0,1.2,0.1,1.8-0.1
		c-0.1-3.1-0.1-6.2-0.2-9.4c1.9,3.3,3.8,6.4,5.6,9.5C73.8,16.3,74.4,16.4,74.9,16.3z"/>
	<path d="M143.8,0.8c-1.1,0-2.2,0-3.3,0c0.1,3.1-0.1,6.1,0.1,9.3c-1.9-3.2-3.6-6.3-5.4-9.3c-1.2,0-2.2,0-3.3,0c0,5.2,0,10.3,0,15.5
		c1.2,0,2.3,0,3.5,0c-0.1-3.1-0.1-6.2-0.2-9.4c1.9,3.2,3.7,6.3,5.5,9.4c1,0,2,0,3,0c0-2.6,0-5.2,0-7.8C143.8,6,143.9,3.4,143.8,0.8z
		"/>
	<path d="M62.1,8.5C62,7.4,62,6.1,61.7,4.8c-0.4-2-1.6-3.5-3.7-4c-1.4-0.3-2.9-0.4-4.4,0c-1.5,0.4-2.6,1.2-3.3,2.6
		c-0.5,1-0.7,2-0.7,3.1c0,1.3,0,2.5,0,3.8c0,1,0.2,1.9,0.5,2.9c0.6,1.6,1.7,2.7,3.3,3.2c1.2,0.4,2.4,0.4,3.6,0.2
		c2.5-0.3,4.1-1.8,4.6-4.3C62,11.1,62,9.9,62.1,8.5z M58.3,10.5c0,0.5-0.1,1-0.2,1.5c-0.3,1-1,1.5-1.9,1.6c-1,0-1.9-0.2-2.4-1.3
		c-0.2-0.5-0.3-1-0.4-1.6c0-0.4,0-0.7,0-1.1c0-0.4,0-0.7,0-1.1c0-0.6,0-1.1,0-1.7c0-0.2,0-0.4,0-0.6c0-0.7,0.2-1.3,0.6-1.8
		c0.5-0.7,1.2-1,2.1-0.9C56.9,3.7,57.7,4.1,58,5c0.2,0.6,0.3,1.2,0.3,1.7C58.4,8,58.4,9.3,58.3,10.5z"/>
	<path d="M111.6,6.9c-0.9,0.1-4.2,0.1-4.8,0c0-2,0-4,0-6c-1.2,0-2.4,0-3.5,0c-0.1,1.2-0.1,14.9,0.1,15.5c0.6,0,1.1,0,1.7,0
		c0.6,0,1.2,0.1,1.8-0.1c0-2.1,0-4.1,0-6.2c1.6,0,3.1,0,4.7,0c0,2.1,0,4.2,0,6.3c1.2,0,2.3,0,3.5,0c0-5.2,0-10.3,0-15.5
		c-1.2,0-2.3,0-3.5,0C111.6,2.9,111.6,4.9,111.6,6.9z"/>
	<path d="M82.6,0.8C81,6,79.5,11.1,77.9,16.3c1.2,0,2.4,0,3.5,0c0.3-0.9,0.6-1.8,0.8-2.7c1.7,0,3.3,0,5,0c0.3,0.9,0.5,1.8,0.8,2.7
		c1.2,0,2.4,0,3.7,0c-1.7-5.2-3.3-10.3-5-15.5C85.3,0.8,84,0.8,82.6,0.8z M82.9,10.7c0.6-2.1,1.1-4.1,1.6-6.1c0.8,2,1.3,4,1.9,6.1
		C85.3,10.7,84.1,10.7,82.9,10.7z"/>
	<path d="M121.6,0.8c-1.6,5.2-3.1,10.3-4.7,15.5c1.2,0,2.3,0,3.4,0c0.3-0.9,0.6-1.8,0.9-2.7c1.7,0,3.3,0,5,0
		c0.3,0.9,0.6,1.8,0.8,2.7c1.2,0,2.3,0,3.5,0c-1.7-5.2-3.3-10.3-4.9-15.5C124.3,0.8,123,0.8,121.6,0.8z M124.9,10.8
		c-0.9,0-1.9,0-2.8,0c-0.1-0.7,0.6-3.3,1.6-6.2c0.7,2.1,1.2,4.1,1.8,6.2C125.2,10.7,125.1,10.8,124.9,10.8z"/>
	<path d="M90.3,0.9c0,0.9,0,1.8,0,2.8c1.3,0,2.5,0,3.9,0c0,4.3,0,8.4,0,12.6c1.2,0,2.4,0,3.6,0c0-4.2,0-8.4,0-12.6
		c1.3,0,2.5,0,3.7,0c0-1,0-1.9,0-2.8C100.5,0.7,90.9,0.8,90.3,0.9z"/>
	<path d="M47.5,0.8c-0.6,0-1.2,0-1.8,0c-0.6,0-1.2-0.1-1.8,0.1c0,0.4,0,0.7,0,1.1c0,3.2,0,6.5,0,9.7c0,0.4-0.1,0.8-0.2,1.2
		c-0.1,0.6-0.6,0.8-1.2,0.9c-0.5,0.1-1-0.2-1.2-0.6c-0.2-0.3-0.3-0.7-0.3-1.1c-0.1-0.3,0-0.6-0.1-0.9c-0.2,0-0.3-0.1-0.5-0.1
		c-0.9,0.1-1.8,0.1-2.7,0.2c-0.2,0.7,0,1.4,0.1,2c0.3,1.2,1,2.2,2.2,2.7c1.3,0.6,2.6,0.7,3.9,0.4c1.4-0.3,2.4-1,3-2.4
		c0.4-0.9,0.6-1.8,0.6-2.7c0-3.3,0-6.7,0-10C47.5,1.3,47.5,1.1,47.5,0.8z"/>
	<path d="M44.7,27.2c1.3-0.8,1.8-2,1.5-3.5c-0.3-1.2-1.4-2-2.9-2c-1.3,0-2.6,0-3.8,0c-0.2,0-0.4,0-0.5,0.1c-0.1,1.5-0.1,8.8,0.1,9.4
		c0.4,0,0.9,0.1,1.4-0.1c0-1.1,0-2.3,0-3.5c0.9,0,1.7,0,2.6,0c0.7,1.2,1.3,2.4,2,3.5c0.6,0,1.1,0,1.8,0c-0.8-1.3-1.5-2.5-2.2-3.8
		C44.6,27.3,44.6,27.3,44.7,27.2z M43.7,26.2c-0.2,0.1-0.4,0.2-0.6,0.2c-0.9,0-1.8,0-2.8,0c0-1.2,0-2.2,0-3.4c1.1,0,2.2-0.1,3.3,0.2
		c0.7,0.2,1.1,0.8,1.1,1.5C44.8,25.3,44.4,25.9,43.7,26.2z"/>
	<path d="M74.9,27c1.6,0,3.1,0,4.7,0c0-0.5,0.1-0.9-0.1-1.3c-1.5,0-3,0-4.6,0c0-0.9,0-1.8,0-2.8c0.6,0,1.2,0,1.8,0
		c0.6,0,1.2,0,1.8,0c0.6,0,1.1,0,1.7,0c0-0.4,0-0.7,0-1.1c-2.2,0-4.5,0-6.8,0c0,3.2,0,6.3,0,9.4c2.3,0,4.6,0,6.8,0
		c0-0.4,0-0.8,0-1.3c-1.8,0-3.5,0-5.3,0C74.9,28.9,74.9,28,74.9,27z"/>
	<path d="M57.2,22.9c0-0.4,0.1-0.8,0.1-1.1c-2.3,0-4.5,0-6.8,0c0,3.2,0,6.3,0,9.4c2.3,0,4.5,0,6.8,0c0-0.4,0-0.8,0-1.2
		c-1.8,0-3.5,0-5.3,0c0-1,0-2,0-3c1.6,0,3.1,0,4.7,0c0-0.5-0.1-0.9-0.1-1.3c-1.6,0-3.1,0-4.6,0c0-1,0-1.8,0-2.8
		C53.8,22.9,55.5,22.9,57.2,22.9z"/>
	<path d="M90.3,26.4c-0.5-0.3-1.1-0.4-1.7-0.6c-0.7-0.2-1.4-0.4-2.1-0.6c-0.6-0.2-0.8-0.6-0.8-1.1c0-0.6,0.4-0.9,0.9-1.1
		c1.1-0.3,2.1-0.3,3.2,0.2c0.3,0.2,0.7,0.3,1,0.5c0.2-0.5,0.3-0.8,0.5-1.2c-0.1-0.1-0.1-0.2-0.2-0.2c-0.1-0.1-0.1-0.1-0.2-0.1
		c-1.3-0.7-2.7-0.8-4.1-0.6c-0.4,0.1-0.8,0.2-1.1,0.3c-0.9,0.5-1.5,1.3-1.5,2.4c0,1.1,0.7,1.7,1.6,2.1c0.5,0.2,1,0.3,1.5,0.5
		c0.6,0.2,1.3,0.4,1.9,0.6c0.5,0.2,0.8,0.6,0.7,1.1c0,0.6-0.3,0.9-0.8,1.1c-0.7,0.3-1.4,0.4-2.2,0.2c-0.8-0.2-1.7-0.5-2.5-0.8
		c-0.1,0.3-0.3,0.7-0.4,1.1c0.1,0.1,0.2,0.2,0.3,0.3c1.4,0.7,2.8,0.9,4.4,0.7c0.7-0.1,1.4-0.4,2-0.9C92,29.4,91.8,27.2,90.3,26.4z"
		/>
	<path d="M65.3,26.1c-0.9-1.5-1.7-2.9-2.6-4.3c-0.3,0-0.5,0-0.8,0c-0.3,0-0.6,0-0.9,0c0.2,0.4,0.3,0.6,0.5,0.8
		c0.6,1.1,1.2,2.2,2,3.2c0.9,1.2,1.3,2.5,1.1,4c-0.1,0.5,0,1,0,1.4c0.6,0,1,0,1.5,0c0-1,0-2,0-2.9c0-0.5,0.1-0.8,0.3-1.2
		c0.9-1.4,1.8-2.9,2.6-4.3c0.2-0.3,0.4-0.6,0.6-1c-0.6,0-1.2,0-1.7,0C67,23.2,66.2,24.6,65.3,26.1z"/>
	<path d="M6.7,6c0,0.3-0.1,1.3-0.1,2.6c0,0.1,0,0.2,0,0.3c0,0.2,0,0.4,0,0.7c0,0.7,0,1.4,0,2.2c0,0.1,0,0.3,0,0.4c0,0.3,0,0.5,0,0.8
		c0,0.5,0,1,0,1.5c0,0.5,0,0.9,0,1.4c0,0.3,0,0.6,0,0.9c0,0.5,0,1,0,1.6c0,0.2,0,0.4,0,0.7c0,3.3,0.1,5.9,0.1,6.1c0,0,0.1,0,0.1,0.1
		c0,0,0,0,0,0c3,0,6,0,9,0c0.2,0,0.4-0.1,0.6-0.1c0-6.4,0-12.8,0-19.2C15.7,5.8,7.3,5.9,6.7,6z M13.6,11.6c0.9,0,1.1,0.2,0.8,1.1
		c-0.3,0.7-0.6,1.3-1,2c-0.2,0.4-0.4,0.7-0.6,1.1c0.5,1.4,1.4,2.5,1.8,4c-0.5,0-1,0.1-1.5,0.1c-0.4-0.9-0.8-1.7-1.2-2.7
		c-0.7,0.8-0.8,1.7-1.3,2.6c-0.4,0-0.8,0-1.4,0c0.1-0.3,0.1-0.5,0.2-0.7c0.5-1,1-1.9,1.5-2.9c0.2-0.3,0.2-0.5,0-0.8
		c-0.4-0.8-0.8-1.6-1.1-2.3c-0.2-0.4-0.2-0.8-0.4-1.3c0.5,0,0.9,0,1.3-0.1c0.4,0.9,0.8,1.8,1.3,2.7c0.6-0.8,0.9-1.8,1.4-2.6
		C13.5,11.6,13.6,11.6,13.6,11.6z"/>
	<path d="M18.2,19.8c-0.2,0.8-0.1,4.9,0,5.5c2.7,0,5.5,0,8.3,0c0-1.8,0-3.7,0-5.5C23.6,19.8,20.9,19.8,18.2,19.8z"/>
	<path d="M18.1,11c2.8,0,5.6,0,8.4,0c0-1.7,0-3.4,0-5.2c-2.8,0-5.6,0-8.4,0C18.1,7.7,18,9.4,18.1,11z"/>
	<path d="M18.1,12.8c0,1.8,0,3.4,0,5.1c2.8,0,5.6,0,8.4,0c0-1.7,0-3.4,0-5.1C23.7,12.8,20.9,12.8,18.1,12.8z"/>
</g>
</svg>
